<svg xmlns="http://www.w3.org/2000/svg" viewBox="0 0 529.15997 529.15997">
<defs><linearGradient id="g-azure" x1="0" y1="0" x2="1" y2="1" gradientUnits="objectBoundingBox"><stop offset="0" stop-color="#7cc0ec"/><stop offset="1" stop-color="#2f6db0"/></linearGradient><linearGradient id="g-teal" x1="0" y1="0" x2="1" y2="1" gradientUnits="objectBoundingBox"><stop offset="0" stop-color="#46cdbb"/><stop offset="1" stop-color="#138a7e"/></linearGradient><linearGradient id="g-gray" x1="0" y1="0" x2="1" y2="1" gradientUnits="objectBoundingBox"><stop offset="0" stop-color="#d6dce2"/><stop offset="1" stop-color="#828c95"/></linearGradient></defs>

  <clipPath id="a">
    <path d="m2512.85 434.602c664.19 226.828 1108.92 846.878 1108.92 1549.778 0 506.38-229.59 976.52-629.89 1289.87l-48.49 37.96v-1419.24c0-285.63-16.44-484.51-48.85-591.12-31.25-102.71-92.53-204.08-182.15-301.28-59.65-64.691-126.61-118.961-199.54-161.781v2695.511l-20.68 6.77c-163.79 53.55-334.64 80.71-507.81 80.71-116.47 0-232.75-12.43-346.2-36.98v323.08c114.09 20.48 230.43 30.86 346.2 30.86 1077.66 0 1954.37-876.72 1954.37-1954.36 0-877.2-584.34-1645.45-1425.88-1881.771z" />
  </clipPath>
  <linearGradient id="b" gradientTransform="matrix(0 -3981.4 -3981.4 0 2788.45 3927.9)" gradientUnits="userSpaceOnUse" spreadMethod="pad" x1="0" x2="1" y1="0" y2="0">
    <stop offset="0" stop-color="#bfbdbb" />
    <stop offset=".248485" stop-color="#fbfcfc" />
    <stop offset=".484848" stop-color="#959696" />
    <stop offset=".70303" stop-color="#f0f0f0" />
    <stop offset="1" stop-color="#8d8d8d" />
  </linearGradient>
  <clipPath id="c">
    <path d="m1984.36 30.0117c-1077.637 0-1954.36 876.7073-1954.36 1954.3683 0 877.19 584.355 1645.42 1425.89 1881.75v-2120.73c0-174.88 16.68-297.63 50.98-375.3 36.14-81.88 96.23-147.98 178.61-196.45 80.54-47.37 177.6-71.39 288.48-71.39 116.83 0 219.8 26.54 306.04 78.89 12.05 7.32 23.7 15.02 34.9 23.06v-449.19c-98.23-27.68-208.6-41.7-328.46-41.7-206.52 0-387.97 45.481-539.3 135.2-150.47 89.179-259.14 201.46-323.02 333.71-65.54 135.72-98.77 374.85-98.77 710.74v1419.24l-48.491-37.96c-400.308-313.35-629.89-783.49-629.89-1289.87 0-902.87 734.531-1637.411 1637.391-1637.411 111.23 0 222.24 11.269 330.54 33.543v-322.4534c-108.89-18.6289-219.96-28.0469-330.54-28.0469z" />
  </clipPath>
  <linearGradient id="d" gradientTransform="matrix(0 -3981.4 -3981.4 0 1172.45 3927.91)" gradientUnits="userSpaceOnUse" spreadMethod="pad" x1="0" x2="1" y1="0" y2="0">
    <stop offset="0" stop-color="#ae9964" />
    <stop offset=".248485" stop-color="#fbe383" />
    <stop offset=".484848" stop-color="#8d7036" />
    <stop offset=".714286" stop-color="#c9b14e" />
    <stop offset="1" stop-color="#7f6740" />
  </linearGradient>
  <g transform="matrix(.13333333 0 0 -.13333333 0 529.16)">
    <path d="m1984.36 3968.74c-128.6 0-254.34-12.45-376.2-35.93v-385.64c120.72 29.1 246.68 44.61 376.2 44.61 173.94 0 341.47-27.89 498.49-79.23v-2724.37c92.71 47.199 177.2 111.371 251.6 192.058 92.7 100.542 156.23 205.822 188.8 312.892 33.27 109.43 50.14 311.26 50.14 599.84v1357.66c376.17-294.47 618.38-752.6 618.38-1266.25 0-712.39-465.88-1317.919-1108.92-1528.189v-392.7613c853.7 221.6793 1485.88 998.8603 1485.88 1920.9503 0 1094.17-890.17 1984.36-1984.37 1984.36" fill="#dfdfdd" />
    <g clip-path="url(#a)">
      <path d="m2512.85 434.602c664.19 226.828 1108.92 846.878 1108.92 1549.778 0 506.38-229.59 976.52-629.89 1289.87l-48.49 37.96v-1419.24c0-285.63-16.44-484.51-48.85-591.12-31.25-102.71-92.53-204.08-182.15-301.28-59.65-64.691-126.61-118.961-199.54-161.781v2695.511l-20.68 6.77c-163.79 53.55-334.64 80.71-507.81 80.71-116.47 0-232.75-12.43-346.2-36.98v323.08c114.09 20.48 230.43 30.86 346.2 30.86 1077.66 0 1954.37-876.72 1954.37-1954.36 0-877.2-584.34-1645.45-1425.88-1881.771v331.993" fill="url(#b)" />
    </g>
    <path d="m1973.96 1132.26c-105.46 0-197.39 22.62-273.26 67.24-76.85 45.22-132.83 106.7-166.38 182.71-32.59 73.78-48.43 192.58-48.43 363.19v1226.51 540.64 392.76c-853.699-221.68-1485.89-998.85-1485.89-1920.93 0-1094.2 890.184-1984.3682812 1984.36-1984.3682812 123.1 0 243.58 11.3476812 360.54 32.9179812v384.8203c-115.94-26.668-236.61-40.781-360.54-40.781-886.32 0-1607.391 721.081-1607.391 1607.411 0 513.65 242.207 971.78 618.383 1266.25v-1357.66c0-340.44 34.228-583.96 101.758-723.78 66.48-137.66 179.09-254.221 334.73-346.471 156.02-92.489 342.61-139.387 554.6-139.387 132.62 0 252.67 16.719 358.46 49.25v535.068c-23.54-22.21-50.33-42.57-80.46-60.85-81.5-49.46-179.23-74.54-290.48-74.54" fill="#e9cf72" />
    <g clip-path="url(#c)">
      <path d="m1984.36 30.0117c-1077.637 0-1954.36 876.7073-1954.36 1954.3683 0 877.19 584.355 1645.42 1425.89 1881.75v-2120.73c0-174.88 16.68-297.63 50.98-375.3 36.14-81.88 96.23-147.98 178.61-196.45 80.54-47.37 177.6-71.39 288.48-71.39 116.83 0 219.8 26.54 306.04 78.89 12.05 7.32 23.7 15.02 34.9 23.06v-449.19c-98.23-27.68-208.6-41.7-328.46-41.7-206.52 0-387.97 45.481-539.3 135.2-150.47 89.179-259.14 201.46-323.02 333.71-65.54 135.72-98.77 374.85-98.77 710.74v1419.24l-48.491-37.96c-400.308-313.35-629.89-783.49-629.89-1289.87 0-902.87 734.531-1637.411 1637.391-1637.411 111.23 0 222.24 11.269 330.54 33.543v-322.4534c-108.89-18.6289-219.96-28.0469-330.54-28.0469z" fill="url(#d)" />
    </g>
  </g>

<g transform="translate(372,372) scale(-1,1) scale(1.62) translate(-119,-111)">
<g transform="translate(-1.46,-0.55)">
<g transform="translate(0,222) scale(0.1,-0.1)" fill="url(#g-teal)" stroke="#0b141c" stroke-width="21" stroke-linejoin="round">
<path d="M1675 1316 c-8 -20 -15 -40 -15 -45 0 -12 -52 -41 -74 -41 -8 0 -31
10 -51 21 l-36 22 -40 -39 c-45 -44 -46 -51 -20 -100 20 -36 20 -37 1 -75 -15
-28 -28 -39 -52 -44 -50 -11 -58 -22 -58 -81 l0 -54 47 -13 c40 -10 49 -18 64
-52 17 -38 17 -41 -2 -71 -26 -43 -24 -55 18 -99 l37 -38 43 23 c40 21 45 22
80 7 32 -12 40 -22 51 -61 l13 -46 63 0 63 0 9 43 c7 34 16 46 46 62 l38 20
46 -24 45 -24 42 41 42 42 -23 44 c-23 43 -23 44 -5 81 14 30 26 41 58 50 l40
11 0 63 0 64 -39 11 c-29 8 -45 21 -59 45 -19 35 -19 35 4 83 l23 49 -41 41
-41 41 -43 -25 c-41 -24 -43 -25 -81 -9 -32 13 -40 23 -51 61 l-13 45 -57 3
c-57 3 -58 3 -72 -32z m154 -206 c127 -64 145 -223 37 -318 -149 -131 -379 36
-302 219 17 39 70 94 106 108 42 17 118 13 159 -9z" />
<path d="M1673 1060 c-68 -41 -91 -121 -53 -187 28 -51 66 -73 127 -73 39 0
55 6 85 31 61 49 69 125 23 196 -34 51 -125 68 -182 33z" />
</g></g>
<g transform="translate(0.08,1.48)">
<g transform="translate(0,222) scale(0.1,-0.1)" fill="url(#g-gray)" stroke="#0b141c" stroke-width="21" stroke-linejoin="round">
<path d="M1161 2039 c-24 -5 -46 -11 -49 -14 -4 -3 -9 -27 -12 -53 -4 -34 -11
-49 -26 -57 -12 -6 -28 -16 -37 -23 -11 -10 -22 -9 -50 3 -56 23 -72 19 -106
-27 -17 -23 -31 -46 -31 -50 0 -5 13 -26 29 -48 26 -37 28 -42 17 -81 -10 -37
-17 -45 -59 -62 l-48 -20 7 -56 c3 -31 10 -61 15 -67 5 -6 31 -14 57 -18 39
-5 51 -12 65 -35 21 -37 21 -61 0 -106 -9 -19 -15 -36 -12 -38 2 -2 23 -18 45
-35 51 -39 64 -39 103 -6 26 22 37 25 70 19 43 -7 61 -23 81 -74 l13 -33 56 6
c68 8 81 19 81 66 0 30 6 43 27 59 38 30 65 35 107 17 20 -8 42 -13 49 -10 6
2 26 25 44 51 l32 46 -29 37 c-50 63 -36 120 36 151 l45 20 -7 57 c-3 31 -8
60 -11 64 -2 4 -20 10 -41 13 -62 11 -67 14 -87 51 -18 34 -18 37 -1 82 l17
47 -38 32 c-55 47 -68 49 -111 15 -33 -26 -41 -28 -79 -20 -39 8 -45 14 -64
59 -23 52 -24 53 -98 38z m157 -244 c98 -42 149 -152 116 -251 -30 -91 -104
-145 -199 -145 -119 0 -205 88 -205 208 1 85 52 160 130 192 38 15 116 13 158
-4z" />
<path d="M1160 1738 c-48 -33 -72 -70 -77 -120 -11 -93 57 -168 152 -168 93 0
155 62 155 155 0 120 -134 198 -230 133z" />
</g></g>
<g transform="translate(1.38,-0.93)">
<g transform="translate(0,222) scale(0.1,-0.1)" fill="url(#g-azure)" stroke="#0b141c" stroke-width="21" stroke-linejoin="round">
<path d="M701 1277 c-5 -14 -15 -43 -21 -65 -9 -35 -17 -44 -57 -62 -59 -26
-63 -26 -124 10 l-51 31 -37 -33 c-20 -18 -47 -46 -60 -62 l-24 -28 32 -58 31
-58 -24 -55 c-23 -53 -25 -55 -82 -69 l-59 -14 0 -89 0 -89 59 -14 c57 -14 59
-16 82 -69 l24 -55 -32 -58 -32 -59 40 -43 c74 -82 75 -83 134 -48 60 35 65
36 121 11 40 -18 45 -25 65 -83 l21 -63 83 0 84 0 18 62 c17 59 21 64 65 83
59 26 63 26 124 -11 l52 -30 61 60 61 61 -18 33 c-11 17 -26 44 -35 59 -15 27
-11 48 27 118 4 8 35 22 67 31 l59 16 0 88 0 88 -59 16 c-32 9 -63 23 -67 31
-43 80 -43 85 -8 150 l34 60 -61 61 -61 60 -52 -30 c-61 -37 -65 -37 -124 -11
-44 19 -48 24 -65 83 l-18 62 -82 3 c-79 3 -83 2 -91 -21z m194 -301 c51 -22
116 -86 141 -141 105 -223 -139 -462 -361 -355 -133 65 -193 227 -130 355 29
60 39 72 87 109 73 55 177 68 263 32z" />
<path d="M728 936 c-56 -20 -85 -42 -118 -87 -101 -140 5 -342 180 -342 178 0
283 206 176 346 -58 77 -160 112 -238 83z" />
</g></g>
</g>
</svg>