<svg height="529.15997" viewBox="0 0 529.15997 529.15997" width="529.15997" xmlns="http://www.w3.org/2000/svg" xmlns:xlink="http://www.w3.org/1999/xlink"><clipPath id="a"><path d="m2512.85 434.602c664.19 226.828 1108.92 846.878 1108.92 1549.778 0 506.38-229.59 976.52-629.89 1289.87l-48.49 37.96v-1419.24c0-285.63-16.44-484.51-48.85-591.12-31.25-102.71-92.53-204.08-182.15-301.28-59.65-64.691-126.61-118.961-199.54-161.781v2695.511l-20.68 6.77c-163.79 53.55-334.64 80.71-507.81 80.71-116.47 0-232.75-12.43-346.2-36.98v323.08c114.09 20.48 230.43 30.86 346.2 30.86 1077.66 0 1954.37-876.72 1954.37-1954.36 0-877.2-584.34-1645.45-1425.88-1881.771z"/></clipPath><linearGradient id="b" gradientTransform="matrix(0 -3981.4 -3981.4 0 2788.45 3927.9)" gradientUnits="userSpaceOnUse" spreadMethod="pad" x1="0" x2="1" y1="0" y2="0"><stop offset="0" stop-color="#bfbdbb"/><stop offset=".248485" stop-color="#fbfcfc"/><stop offset=".484848" stop-color="#959696"/><stop offset=".70303" stop-color="#f0f0f0"/><stop offset="1" stop-color="#8d8d8d"/></linearGradient><clipPath id="c"><path d="m1984.36 30.0117c-1077.637 0-1954.36 876.7073-1954.36 1954.3683 0 877.19 584.355 1645.42 1425.89 1881.75v-2120.73c0-174.88 16.68-297.63 50.98-375.3 36.14-81.88 96.23-147.98 178.61-196.45 80.54-47.37 177.6-71.39 288.48-71.39 116.83 0 219.8 26.54 306.04 78.89 12.05 7.32 23.7 15.02 34.9 23.06v-449.19c-98.23-27.68-208.6-41.7-328.46-41.7-206.52 0-387.97 45.481-539.3 135.2-150.47 89.179-259.14 201.46-323.02 333.71-65.54 135.72-98.77 374.85-98.77 710.74v1419.24l-48.491-37.96c-400.308-313.35-629.89-783.49-629.89-1289.87 0-902.87 734.531-1637.411 1637.391-1637.411 111.23 0 222.24 11.269 330.54 33.543v-322.4534c-108.89-18.6289-219.96-28.0469-330.54-28.0469z"/></clipPath><linearGradient id="d" gradientTransform="matrix(0 -3981.4 -3981.4 0 1172.45 3927.91)" gradientUnits="userSpaceOnUse" spreadMethod="pad" x1="0" x2="1" y1="0" y2="0"><stop offset="0" stop-color="#ae9964"/><stop offset=".248485" stop-color="#fbe383"/><stop offset=".484848" stop-color="#8d7036"/><stop offset=".714286" stop-color="#c9b14e"/><stop offset="1" stop-color="#7f6740"/></linearGradient><g transform="matrix(.13333333 0 0 -.13333333 0 529.16)"><path d="m1984.36 3968.74c-128.6 0-254.34-12.45-376.2-35.93v-385.64c120.72 29.1 246.68 44.61 376.2 44.61 173.94 0 341.47-27.89 498.49-79.23v-2724.37c92.71 47.199 177.2 111.371 251.6 192.058 92.7 100.542 156.23 205.822 188.8 312.892 33.27 109.43 50.14 311.26 50.14 599.84v1357.66c376.17-294.47 618.38-752.6 618.38-1266.25 0-712.39-465.88-1317.919-1108.92-1528.189v-392.7613c853.7 221.6793 1485.88 998.8603 1485.88 1920.9503 0 1094.17-890.17 1984.36-1984.37 1984.36" fill="#dfdfdd"/><g clip-path="url(#a)"><path d="m2512.85 434.602c664.19 226.828 1108.92 846.878 1108.92 1549.778 0 506.38-229.59 976.52-629.89 1289.87l-48.49 37.96v-1419.24c0-285.63-16.44-484.51-48.85-591.12-31.25-102.71-92.53-204.08-182.15-301.28-59.65-64.691-126.61-118.961-199.54-161.781v2695.511l-20.68 6.77c-163.79 53.55-334.64 80.71-507.81 80.71-116.47 0-232.75-12.43-346.2-36.98v323.08c114.09 20.48 230.43 30.86 346.2 30.86 1077.66 0 1954.37-876.72 1954.37-1954.36 0-877.2-584.34-1645.45-1425.88-1881.771v331.993" fill="url(#b)"/></g><path d="m1973.96 1132.26c-105.46 0-197.39 22.62-273.26 67.24-76.85 45.22-132.83 106.7-166.38 182.71-32.59 73.78-48.43 192.58-48.43 363.19v1226.51 540.64 392.76c-853.699-221.68-1485.89-998.85-1485.89-1920.93 0-1094.2 890.184-1984.3682812 1984.36-1984.3682812 123.1 0 243.58 11.3476812 360.54 32.9179812v384.8203c-115.94-26.668-236.61-40.781-360.54-40.781-886.32 0-1607.391 721.081-1607.391 1607.411 0 513.65 242.207 971.78 618.383 1266.25v-1357.66c0-340.44 34.228-583.96 101.758-723.78 66.48-137.66 179.09-254.221 334.73-346.471 156.02-92.489 342.61-139.387 554.6-139.387 132.62 0 252.67 16.719 358.46 49.25v535.068c-23.54-22.21-50.33-42.57-80.46-60.85-81.5-49.46-179.23-74.54-290.48-74.54" fill="#e9cf72"/><g clip-path="url(#c)"><path d="m1984.36 30.0117c-1077.637 0-1954.36 876.7073-1954.36 1954.3683 0 877.19 584.355 1645.42 1425.89 1881.75v-2120.73c0-174.88 16.68-297.63 50.98-375.3 36.14-81.88 96.23-147.98 178.61-196.45 80.54-47.37 177.6-71.39 288.48-71.39 116.83 0 219.8 26.54 306.04 78.89 12.05 7.32 23.7 15.02 34.9 23.06v-449.19c-98.23-27.68-208.6-41.7-328.46-41.7-206.52 0-387.97 45.481-539.3 135.2-150.47 89.179-259.14 201.46-323.02 333.71-65.54 135.72-98.77 374.85-98.77 710.74v1419.24l-48.491-37.96c-400.308-313.35-629.89-783.49-629.89-1289.87 0-902.87 734.531-1637.411 1637.391-1637.411 111.23 0 222.24 11.269 330.54 33.543v-322.4534c-108.89-18.6289-219.96-28.0469-330.54-28.0469" fill="url(#d)"/></g></g></svg>