<svg height="700pt" preserveAspectRatio="xMidYMid meet" viewBox="0 0 700 700" width="700pt" xmlns="http://www.w3.org/2000/svg"><g transform="matrix(.1 0 0 -.1 0 700)"><path d="m3278 6996c-1-2-41-6-88-10-98-8-120-11-252-33-87-14-98-18-99-37-7-128-2-656 6-656 6 0 28 5 50 10 55 12 89 18 170 31 39 5 84 12 100 15 51 8 245 18 350 18 249 0 499-35 752-105l113-31 2-2404 3-2403 85 52c133 81 196 131 315 251 170 173 298 369 360 557 28 84 27 77 48 209 46 276 50 435 51 1937 1 727 4 1324 6 1327 13 12 304-264 415-394 161-189 328-458 442-715 28-64 118-318 128-362 2-10 15-67 29-128 14-60 27-128 31-150 3-22 7-53 10-70 12-75 15-106 22-190 12-155 6-443-11-545-3-14-7-47-11-75-3-27-8-59-10-70-3-11-7-31-9-45-66-371-224-753-446-1076-250-365-578-664-977-888-123-69-360-174-444-196l-39-11v-348-349l113 33c454 136 815 328 1231 655 56 43 241 218 313 293 479 507 792 1130 912 1817 11 63 23 142 26 175 4 33 9 71 11 85 9 48 11 525 4 605-17 176-22 220-25 225-2 3-6 30-10 60-7 55-58 298-75 355-98 332-208 594-352 839-391 663-964 1169-1666 1469-297 127-647 220-957 253-27 3-63 8-80 10-34 6-541 14-547 10z"/><path d="m2585 6879c-96-22-409-132-429-150-6-5-16-9-23-9-20 0-297-139-404-203-260-155-464-313-675-522-184-183-222-226-344-386-288-382-491-802-603-1254-77-309-102-518-102-860 1-194 7-327 20-406 2-13 6-46 10-74 9-76 16-116 25-160 5-22 11-53 14-70 29-160 113-433 193-625 142-346 374-711 633-1000 92-102 273-277 359-346 13-10 28-24 35-29 51-48 406-295 422-295 2 0 23-12 45-26 59-37 278-145 389-192 269-114 649-215 920-246 292-34 694-28 948 13 37 6 78 13 92 15l25 3v338l1 337-36-5c-19-3-89-15-155-26-230-39-591-46-795-15-315 47-550 113-799 223-186 83-415 217-556 328-16 13-35 27-40 31-90 64-340 307-431 417-303 367-504 781-597 1230-22 106-29 144-43 255-22 166-22 556 0 666 2 12 7 45 11 75 7 58 44 236 69 334 33 132 126 375 197 517 61 121 221 385 248 408 3 3 26 32 50 65 25 33 47 62 50 65s40 43 81 89c62 70 127 136 234 237 16 14 126 104 129 104 1 0 2-593 3-1318 1-1162 5-1521 19-1612 2-14 6-56 10-95 3-38 8-81 10-95s7-45 10-70c48-362 168-617 395-839 261-255 616-426 989-475 281-37 603-21 860 43 46 12 84 21 85 21s2 211 1 469c0 311-3 467-10 463-5-3-28-20-50-37-49-39-161-105-179-105-6 0-16-4-22-9-13-14-147-50-229-62-121-18-307-12-400 13-22 5-47 12-55 13-36 8-103 36-166 70-220 119-344 305-379 565-3 25-8 61-12 80-3 19-8 901-10 1960s-4 1981-6 2050l-2 126z"/></g></svg>